<?xml version="1.0" encoding="utf-8"?>
<!-- Generator: Adobe Illustrator 27.0.0, SVG Export Plug-In . SVG Version: 6.00 Build 0)  -->
<svg version="1.1" id="Layer_1" xmlns="http://www.w3.org/2000/svg" xmlns:xlink="http://www.w3.org/1999/xlink" x="0px" y="0px"
	 viewBox="0 0 378.6 84.4" style="enable-background:new 0 0 378.6 84.4;" xml:space="preserve">
<style type="text/css">
	.st0{fill-rule:evenodd;clip-rule:evenodd;fill:#FFFFFF;}
	.st1{fill-rule:evenodd;clip-rule:evenodd;fill:#2E2E2E;}
	.st2{fill-rule:evenodd;clip-rule:evenodd;fill:url(#SVGID_1_);}
	.st3{fill:#2E2E2E;}
	.st4{fill:url(#SVGID_00000124871755797083506000000014962630970980880286_);}
</style>
<path class="st0" d="M209.3,11.5v13.9c-0.5-1.2-1.1-2.3-1.9-3.2c-1.9-2.1-4.4-3.1-7.6-3.1c-2.1,0-4,0.5-5.7,1.5
	c-1.3,0.8-2.3,1.8-3.2,3l1.4-4.2h-9.6l-2,7.3l-2-7.3h-9.6l0.9,2.7c-0.2-0.3-0.5-0.6-0.8-0.8c-1.7-1.5-4.1-2.2-6.9-2.2
	c-1.8,0-3.5,0.3-5,1c-1,0.4-1.9,1-2.6,1.7v-1.9l-1.4-0.4c-0.7-0.2-1.4-0.3-2.2-0.3c-0.7,0-1.6,0.1-2.5,0.5v-0.1H140v7
	c-0.3-2.1-1.2-3.8-2.7-5.1c-1.7-1.5-4.1-2.2-6.9-2.2c-1.8,0-3.5,0.3-5,1c-1.6,0.7-2.8,1.6-3.7,2.9c-0.9,1.3-1.4,2.7-1.4,4.2v2h2.3
	c-1.5,1.3-2.4,3-2.6,5.1h-9.2V12.9h-9.3v29.6H122v-2.2l0.4,0.4c1.6,1.4,3.6,2.1,6,2.1c0.9,0,1.8-0.1,2.6-0.3h18.1V28.6
	c0.2-0.2,0.7-0.5,1.8-0.5c0.4,0,0.9,0,1.4,0.1v1h2.3c-1.8,1.4-2.7,3.5-2.7,6c0,2.2,0.9,4.1,2.5,5.6c1.6,1.4,3.6,2.1,6,2.1
	c0.9,0,1.8-0.1,2.6-0.3h9.9v-2.8l-0.2-0.4c-0.2-0.4-0.5-1.2-0.5-3.2V28l4.9,14.5h7.7l4.4-13c0,0.5-0.1,0.9-0.1,1.4v0.5
	c0,3.4,1.1,6.2,3.2,8.3c2.1,2.1,4.9,3.1,8.2,3.1c1.9,0,3.6-0.4,5.2-1.1c1.5-0.7,2.8-1.7,3.8-3.1v3.8h9.1v-31L209.3,11.5L209.3,11.5z
	 M207.9,34.6h1.4v1.5L207.9,34.6z M302.7,42.4c-1.9,0-3.4-0.6-4.3-1.8c-0.9-1.1-1.3-2.7-1.3-4.6V24.7h-3.3c0.7,1.5,1,3.2,1,5.2v2.7
	h-13.5c0.2,1.3,0.6,2.4,1.4,3.3c0.9,1.1,2.1,1.6,3.5,1.6c0.9,0,1.7-0.2,2.3-0.5c0.6-0.3,1.3-0.8,1.8-1.5l0.9-1.2l3.6,2.8l-0.8,1.2
	c-1.8,2.7-4.5,4-8,4c-1.9,0-3.6-0.5-5.2-1.4c-1.5-0.9-2.8-2.3-3.6-3.9c-0.8-1.6-1.3-3.5-1.3-5.5v-0.8c0-2,0.4-3.9,1.2-5.6
	c0.8-1.7,2-3.1,3.5-4.1s3.2-1.5,4.9-1.5c2.8,0,5,1,6.6,2.9c0.4,0.5,0.8,1.1,1.2,1.7V20h3.5v-4.9h4.2l0.9,0.9v4h3.9v4.7h-3.9v11.2
	c0,1,0.2,1.4,0.3,1.5c0.1,0.1,0.3,0.2,0.7,0.2c0.2,0,0.5,0,1.5-0.2l1.6-0.2l0.2,4.5l-1,0.4C304.8,42.2,303.9,42.4,302.7,42.4
	L302.7,42.4z M289.6,27.8c-0.2-0.9-0.5-1.6-1.1-2.2c-0.7-0.8-1.6-1.2-2.7-1.2c-1.2,0-2.1,0.4-2.9,1.3c-0.5,0.6-0.9,1.3-1.2,2.2
	L289.6,27.8L289.6,27.8z M256.7,42.4c-2.2,0-4-0.6-5.4-1.9c-1.5-1.3-2.2-3-2.2-5c0-2.3,1-4.3,3-5.6c1.8-1.3,4.2-1.9,7.3-1.9h2.3
	v-0.7c0-0.9-0.2-1.6-0.8-2.1c-0.5-0.5-1.4-0.8-2.6-0.8c-1.1,0-2,0.3-2.7,0.8c-0.8,0.6-0.9,1.1-0.9,1.5v1.5h-5.1v-1.5
	c0-2,0.9-3.7,2.7-5.1c1.7-1.3,3.7-2,6.1-2c2.5,0,4.5,0.7,6,2c1.6,1.3,2.4,3.2,2.4,5.5v9c0,2,0.3,3,0.5,3.5l0.1,0.3v2h-4.8
	c0,0-0.4-1.1-0.4-1.2c-0.4,0.2-0.7,0.4-1.1,0.6C259.6,42,258.1,42.4,256.7,42.4L256.7,42.4z M259.3,32.6c-1.8,0-3.2,0.3-4.1,0.9
	c-0.7,0.5-1.1,1-1.1,1.8c0,0.6,0.2,1.1,0.7,1.5c0.5,0.5,1.2,0.7,2.1,0.7c1.1,0,2.1-0.3,3-0.8c0.8-0.5,1.3-1.1,1.7-1.8v-2.3
	L259.3,32.6z M269.5,42V12h5.1v30H269.5z M236.4,42l-10.6-28.6h5.6l7.1,19.9l7.1-19.9h5.6L240.6,42H236.4L236.4,42z"/>
<path class="st1" d="M238.3,37.3l0.1,0.5l0.2-0.5l8.1-22.4h2.4l-9.5,25.6h-2.1L228,14.9h2.4L238.3,37.3L238.3,37.3z M263.5,40.5
	c-0.2-0.6-0.3-1.5-0.4-2.7c-0.7,1-1.7,1.7-2.8,2.2c-1.1,0.5-2.4,0.8-3.6,0.8c-1.8,0-3.3-0.5-4.4-1.5c-1.1-1-1.7-2.3-1.7-3.9
	c0-1.8,0.8-3.3,2.3-4.4s3.7-1.6,6.4-1.6h3.8v-2.2c0-1.4-0.4-2.4-1.3-3.2c-0.8-0.8-2.1-1.2-3.7-1.2c-1.5,0-2.7,0.4-3.6,1.1
	c-1,0.8-1.4,1.7-1.4,2.7H251c0-1.5,0.7-2.8,2.1-3.9s3.1-1.7,5.2-1.7s3.8,0.5,5,1.6s1.9,2.5,1.9,4.4v9c0,1.8,0.2,3.2,0.6,4.1v0.2
	h-2.3L263.5,40.5z M256.9,39c1.4,0,2.7-0.3,3.8-1c1.1-0.7,1.9-1.6,2.4-2.7v-4.2h-3.8c-2.1,0-3.7,0.4-4.9,1.2
	c-1.2,0.7-1.8,1.8-1.8,3.1c0,1.1,0.4,2,1.2,2.7C254.6,38.6,255.6,39,256.9,39z M273.1,40.5H271v-27h2.1V40.5z M286.2,40.9
	c-1.6,0-3.1-0.4-4.4-1.2s-2.3-1.9-3-3.3c-0.7-1.4-1.1-3-1.1-4.8v-0.8c0-1.8,0.4-3.5,1.1-4.9c0.7-1.5,1.7-2.6,3-3.5
	c1.3-0.8,2.6-1.3,4.1-1.3c2.3,0,4.1,0.8,5.5,2.4s2,3.7,2,6.5v1.2h-13.6v0.4c0,2.2,0.6,4,1.9,5.4c1.2,1.4,2.8,2.2,4.7,2.2
	c1.1,0,2.1-0.2,3-0.6c0.9-0.4,1.6-1.1,2.3-2l1.3,1C291.4,39.7,289.2,40.9,286.2,40.9z M285.8,22.9c-1.6,0-2.9,0.6-4,1.7
	c-1.1,1.2-1.7,2.7-2,4.7h11.4v-0.2c-0.1-1.8-0.6-3.3-1.6-4.5C288.7,23.5,287.4,22.9,285.8,22.9z M300.7,16.6v4.9h3.9v1.7h-3.9v12.7
	c0,1.1,0.2,1.8,0.6,2.4c0.4,0.5,1,0.8,1.9,0.8c0.4,0,0.9-0.1,1.7-0.2l0.1,1.7c-0.5,0.2-1.3,0.3-2.2,0.3c-1.4,0-2.5-0.4-3.1-1.3
	c-0.7-0.8-1-2.1-1-3.7V23.2h-3.5v-1.7h3.5v-4.9L300.7,16.6z"/>
<g>
	<path class="st0" d="M5.4,54.3c-2.5,0-5.4-1.9-5.4-7.2v-40C0,1.9,2.9,0,5.4,0c1.6,0,3.3,0.7,5,2l31.1,23.3L72.6,2
		c1.7-1.3,3.4-2,5-2C80.1,0,83,1.9,83,7.2v40c0,5.3-2.9,7.2-5.4,7.2c-1.6,0-3.3-0.7-5-2L41.5,29L10.4,52.4C8.7,53.6,7,54.3,5.4,54.3
		z"/>
	
		<linearGradient id="SVGID_1_" gradientUnits="userSpaceOnUse" x1="-130.325" y1="152.8591" x2="-130.325" y2="153.8587" gradientTransform="matrix(80 0 0 51.3249 10467.5 -7844.0044)">
		<stop  offset="0" style="stop-color:#BD74E6"/>
		<stop  offset="1" style="stop-color:#4B40C8"/>
	</linearGradient>
	<path class="st2" d="M1.5,7.2c0-5.5,3.6-7.3,8-4l32,24l32-24c4.4-3.3,8-1.5,8,4v40c0,5.5-3.6,7.3-8,4l-32-24l-32,24
		c-4.4,3.3-8,1.5-8-4V7.2z"/>
</g>
<path class="st1" d="M108.8,36.3H120v4.2h-16.5V14.9h5.3V36.3z M138.1,36.1v-8.2c0-2.1-0.7-3.8-2.1-5c-1.4-1.2-3.2-1.8-5.6-1.8
	c-1.5,0-2.9,0.3-4.2,0.8c-1.2,0.5-2.2,1.3-2.9,2.2c-0.7,0.9-1,2-1,3.1h5.1c0-0.7,0.2-1.3,0.7-1.7c0.5-0.4,1.2-0.6,2-0.6
	c1,0,1.7,0.3,2.1,0.8c0.5,0.5,0.7,1.2,0.7,2.1v1.1h-2.3c-2.8,0-5,0.6-6.5,1.6c-1.5,1.1-2.2,2.6-2.2,4.6c0,1.6,0.6,3,1.8,4.1
	c1.2,1.1,2.8,1.6,4.6,1.6c2,0,3.6-0.7,4.8-2.1c0.1,0.7,0.3,1.2,0.5,1.7h5.1v-0.3C138.3,39.3,138.1,37.9,138.1,36.1z M133,35.1
	c-0.3,0.6-0.8,1-1.4,1.3c-0.6,0.3-1.3,0.5-2.1,0.5s-1.4-0.2-1.8-0.6c-0.4-0.4-0.7-0.9-0.7-1.6v-0.3c0.2-1.8,1.5-2.6,4.1-2.6h1.9
	C133,31.8,133,35.1,133,35.1z M152.6,26.2c-0.7-0.1-1.3-0.1-1.8-0.1c-1.9,0-3.2,0.6-3.8,2v12.4h-5v-19h4.8l0.1,2.3
	c1-1.7,2.4-2.6,4.2-2.6c0.6,0,1.1,0.1,1.6,0.2L152.6,26.2z M170,36.1v-8.2c0-2.1-0.7-3.8-2.1-5c-1.4-1.2-3.2-1.8-5.6-1.8
	c-1.5,0-2.9,0.3-4.2,0.8c-1.2,0.5-2.2,1.3-2.9,2.2s-1,2-1,3.1h5.1c0-0.7,0.2-1.3,0.7-1.7c0.5-0.4,1.2-0.6,2-0.6c1,0,1.7,0.3,2.1,0.8
	c0.5,0.5,0.7,1.2,0.7,2.1v1.1h-2.3c-2.8,0-5,0.6-6.5,1.6c-1.5,1.1-2.2,2.6-2.2,4.6c0,1.6,0.6,3,1.8,4.1s2.8,1.6,4.6,1.6
	c2,0,3.6-0.7,4.8-2.1c0.1,0.7,0.3,1.2,0.5,1.7h5.1v-0.3C170.2,39.3,170,37.9,170,36.1L170,36.1z M164.9,35.1c-0.3,0.6-0.8,1-1.4,1.3
	c-0.6,0.3-1.3,0.5-2.1,0.5s-1.4-0.2-1.8-0.6c-0.4-0.4-0.7-0.9-0.7-1.6v-0.3c0.2-1.8,1.5-2.6,4.1-2.6h1.9
	C164.9,31.8,164.9,35.1,164.9,35.1z M180.7,34.3l3.6-12.8h5.3l-6.5,19h-4.8l-6.4-19h5.3L180.7,34.3L180.7,34.3z M208.1,30.6
	c0-3-0.7-5.3-2.2-7c-1.5-1.6-3.5-2.5-6.1-2.5c-1.7,0-3.3,0.4-4.6,1.2c-1.4,0.8-2.4,2-3.1,3.5c-0.7,1.5-1.1,3.2-1.1,5.1v0.5
	c0,2.8,0.9,5.1,2.6,6.8c1.8,1.7,4,2.6,6.8,2.6c1.6,0,3-0.3,4.3-0.9c1.3-0.6,2.3-1.4,3.1-2.5l-2.5-2.8c-1.1,1.4-2.6,2.1-4.6,2.1
	c-1.3,0-2.3-0.4-3.1-1.1c-0.8-0.8-1.3-1.7-1.5-3h12.1L208.1,30.6L208.1,30.6z M203.2,29.2h-7.1c0.2-1.3,0.6-2.2,1.2-2.9
	c0.6-0.7,1.4-1,2.5-1s1.9,0.3,2.5,0.9s0.9,1.5,0.9,2.6L203.2,29.2L203.2,29.2z M216.4,40.5h-5.1v-27h5.1V40.5z"/>
<g>
	<path class="st3" d="M195,50.5h1.2c0.3,0,0.5,0.1,0.5,0.4l3,18.6c0,0.2,0.1,0.4,0.1,0.6c0,0.2,0,0.4,0,0.7c0.1-0.2,0.2-0.5,0.2-0.7
		s0.2-0.4,0.2-0.6l8.1-18.6c0.1-0.1,0.1-0.2,0.2-0.3s0.2-0.1,0.4-0.1h0.3c0.3,0,0.5,0.1,0.5,0.4l3.5,18.6c0,0.2,0.1,0.4,0.1,0.6
		c0,0.2,0,0.4,0.1,0.7c0.1-0.2,0.1-0.4,0.2-0.7c0.1-0.2,0.1-0.4,0.2-0.6l7.5-18.6c0-0.1,0.1-0.2,0.2-0.3c0.1-0.1,0.3-0.1,0.4-0.1
		h1.2L214.2,73h-1.4l-3.7-19.6c0-0.1,0-0.2-0.1-0.4c0-0.1,0-0.3-0.1-0.4c-0.1,0.1-0.1,0.3-0.2,0.4c0,0.1-0.1,0.3-0.2,0.4L200.2,73
		h-1.4L195,50.5z"/>
	<path class="st3" d="M226.3,57.2L224.4,73H223l1.9-15.8H226.3z M227.5,51.7c0,0.2,0,0.4-0.1,0.5c-0.1,0.2-0.2,0.3-0.3,0.4
		s-0.3,0.2-0.4,0.3c-0.2,0.1-0.3,0.1-0.5,0.1c-0.2,0-0.3,0-0.5-0.1c-0.2-0.1-0.3-0.2-0.4-0.3c-0.1-0.1-0.2-0.3-0.3-0.4
		s-0.1-0.3-0.1-0.5s0-0.4,0.1-0.5s0.2-0.3,0.3-0.5c0.1-0.1,0.3-0.2,0.4-0.3c0.2-0.1,0.3-0.1,0.5-0.1c0.2,0,0.3,0,0.5,0.1
		c0.2,0.1,0.3,0.2,0.4,0.3s0.2,0.3,0.3,0.5C227.5,51.4,227.5,51.6,227.5,51.7z"/>
	<path class="st3" d="M229,73l1.9-15.8h0.7c0.4,0,0.5,0.2,0.5,0.6l-0.5,4.6c0.4-0.8,0.9-1.6,1.4-2.2c0.5-0.7,1.1-1.2,1.7-1.7
		s1.2-0.8,1.8-1c0.6-0.2,1.2-0.4,1.9-0.4c1.2,0,2.1,0.4,2.6,1.2s0.9,1.9,0.9,3.3c0,0.1,0,0.2,0,0.3c0,0.1,0,0.3,0,0.6
		c0,0.3-0.1,0.6-0.1,1.1s-0.1,1.1-0.2,2c-0.1,0.8-0.2,1.8-0.4,3.1s-0.3,2.7-0.5,4.5h-1.5l1.2-10.1c0.1-0.5,0.1-0.9,0.1-1.4
		c0-1.1-0.2-1.9-0.6-2.4c-0.4-0.6-1-0.8-1.9-0.8c-0.6,0-1.2,0.2-1.8,0.5s-1.2,0.7-1.8,1.3c-0.6,0.6-1.1,1.2-1.6,2
		c-0.5,0.8-0.9,1.7-1.3,2.7l-1,8.3H229z"/>
	<path class="st3" d="M254.8,73c-0.2,0-0.3,0-0.4-0.1c-0.1-0.1-0.1-0.2-0.1-0.3l0.5-5c-0.4,0.9-0.9,1.6-1.4,2.3s-1.1,1.3-1.6,1.8
		c-0.6,0.5-1.2,0.9-1.8,1.2c-0.6,0.3-1.3,0.4-1.9,0.4c-0.7,0-1.3-0.1-1.8-0.4c-0.5-0.3-1-0.6-1.3-1.1c-0.3-0.5-0.6-1.1-0.8-1.8
		c-0.2-0.7-0.3-1.5-0.3-2.3c0-0.8,0.1-1.6,0.3-2.5c0.2-0.8,0.4-1.7,0.7-2.4c0.3-0.8,0.7-1.5,1.1-2.2s1-1.3,1.5-1.8
		c0.6-0.5,1.2-0.9,1.9-1.2c0.7-0.3,1.4-0.5,2.2-0.5c0.9,0,1.6,0.2,2.4,0.6c0.7,0.4,1.3,0.9,1.8,1.7l1.2-9.3h1.5L255.6,73H254.8z
		 M248.6,71.9c0.6,0,1.2-0.2,1.8-0.5s1.2-0.8,1.8-1.4c0.6-0.6,1.1-1.3,1.6-2.2c0.5-0.9,0.9-1.8,1.3-2.9l0.6-4.6
		c-0.5-0.8-1-1.4-1.7-1.7c-0.7-0.3-1.4-0.5-2.1-0.5c-0.7,0-1.3,0.1-1.9,0.4s-1.1,0.6-1.6,1.1c-0.5,0.5-0.9,1-1.3,1.6
		c-0.4,0.6-0.7,1.3-0.9,2c-0.2,0.7-0.4,1.4-0.6,2.1c-0.1,0.7-0.2,1.4-0.2,2.1c0,1.4,0.3,2.5,0.8,3.3
		C246.8,71.6,247.6,71.9,248.6,71.9z"/>
	<path class="st3" d="M265.1,73.2c-0.8,0-1.6-0.1-2.3-0.4c-0.7-0.3-1.3-0.7-1.8-1.3c-0.5-0.6-0.9-1.2-1.1-2s-0.4-1.7-0.4-2.7
		c0-1.3,0.2-2.5,0.6-3.7c0.4-1.2,0.9-2.2,1.6-3.1s1.5-1.6,2.5-2.1c1-0.5,2-0.8,3.1-0.8c0.8,0,1.6,0.2,2.3,0.5
		c0.7,0.3,1.3,0.7,1.8,1.3c0.5,0.6,0.9,1.2,1.1,2s0.4,1.7,0.4,2.7c0,1.3-0.2,2.5-0.6,3.7c-0.4,1.2-0.9,2.2-1.6,3.1
		c-0.7,0.9-1.5,1.6-2.5,2.2S266.2,73.2,265.1,73.2z M265.2,72c0.9,0,1.8-0.2,2.5-0.7c0.8-0.5,1.4-1.1,1.9-1.9s1-1.7,1.2-2.7
		c0.3-1,0.4-2.1,0.4-3.2c0-1.7-0.4-3-1.1-3.9c-0.8-0.9-1.8-1.4-3.1-1.4c-0.6,0-1.2,0.1-1.7,0.3c-0.5,0.2-1,0.5-1.5,0.9
		c-0.5,0.4-0.9,0.9-1.2,1.4c-0.4,0.5-0.7,1.1-0.9,1.8c-0.2,0.6-0.4,1.3-0.6,2s-0.2,1.4-0.2,2.2c0,1.7,0.4,3,1.1,3.9
		S263.9,72,265.2,72z"/>
	<path class="st3" d="M274.5,57.2h1.1c0.3,0,0.4,0.1,0.5,0.4l2.1,12.4c0,0.2,0.1,0.5,0.1,0.7s0,0.4,0,0.6c0.1-0.2,0.2-0.4,0.3-0.6
		s0.2-0.4,0.3-0.7l5.4-12.6c0.1-0.2,0.2-0.3,0.5-0.3h0.6c0.2,0,0.4,0.1,0.4,0.3L288,70c0.1,0.2,0.1,0.5,0.1,0.7c0,0.2,0,0.4,0.1,0.7
		c0.1-0.2,0.1-0.4,0.2-0.7c0.1-0.2,0.2-0.5,0.3-0.7l5.2-12.4c0.1-0.1,0.1-0.2,0.2-0.3s0.2-0.1,0.3-0.1h1L288.6,73h-1.1
		c-0.2,0-0.3-0.1-0.3-0.3l-2.4-12.8c-0.1-0.3-0.1-0.5-0.1-0.7c-0.1,0.2-0.2,0.5-0.3,0.7l-5.6,12.8c-0.1,0.2-0.2,0.3-0.4,0.3h-1
		L274.5,57.2z"/>
	<path class="st3" d="M305.3,59.1c-0.1,0.1-0.2,0.2-0.3,0.2c-0.1,0-0.2-0.1-0.4-0.2c-0.2-0.1-0.4-0.3-0.6-0.4
		c-0.3-0.2-0.6-0.3-1-0.4c-0.4-0.1-0.9-0.2-1.5-0.2c-0.5,0-1,0.1-1.5,0.3c-0.5,0.2-0.9,0.4-1.3,0.7c-0.4,0.3-0.6,0.7-0.8,1
		s-0.3,0.8-0.3,1.3c0,0.4,0.1,0.8,0.3,1.1c0.2,0.3,0.5,0.6,0.8,0.8c0.3,0.2,0.7,0.4,1.1,0.6s0.8,0.3,1.3,0.5
		c0.4,0.2,0.9,0.3,1.3,0.5c0.4,0.2,0.8,0.4,1.1,0.7c0.3,0.3,0.6,0.6,0.8,1c0.2,0.4,0.3,0.9,0.3,1.4c0,0.7-0.1,1.3-0.4,2
		c-0.3,0.6-0.7,1.2-1.1,1.7c-0.5,0.5-1.1,0.9-1.8,1.2s-1.5,0.4-2.4,0.4c-1,0-1.9-0.2-2.6-0.5c-0.7-0.4-1.3-0.8-1.8-1.4l0.4-0.5
		c0.1-0.1,0.1-0.1,0.2-0.2c0.1,0,0.1-0.1,0.2-0.1c0.1,0,0.2,0.1,0.4,0.3c0.2,0.2,0.4,0.4,0.7,0.6c0.3,0.2,0.6,0.4,1.1,0.6
		s1,0.3,1.6,0.3c0.6,0,1.2-0.1,1.7-0.3s1-0.5,1.3-0.8c0.4-0.4,0.6-0.8,0.8-1.2c0.2-0.5,0.3-1,0.3-1.5c0-0.5-0.1-0.9-0.3-1.2
		c-0.2-0.3-0.5-0.6-0.8-0.8c-0.3-0.2-0.7-0.4-1.1-0.6s-0.9-0.3-1.3-0.5c-0.4-0.2-0.9-0.3-1.3-0.5c-0.4-0.2-0.8-0.4-1.1-0.7
		c-0.3-0.3-0.6-0.6-0.8-1c-0.2-0.4-0.3-0.8-0.3-1.4c0-0.6,0.1-1.2,0.4-1.8s0.6-1.1,1.1-1.5c0.5-0.4,1-0.8,1.7-1s1.4-0.4,2.2-0.4
		c0.9,0,1.7,0.1,2.3,0.4c0.7,0.3,1.2,0.7,1.7,1.2L305.3,59.1z"/>
</g>
<g>
	
		<linearGradient id="SVGID_00000125564629436927323580000003895515162396812215_" gradientUnits="userSpaceOnUse" x1="348.7937" y1="1.8021" x2="348.7937" y2="52.3736">
		<stop  offset="0" style="stop-color:#BD74E6"/>
		<stop  offset="1" style="stop-color:#4B40C8"/>
	</linearGradient>
	<path style="fill:url(#SVGID_00000125564629436927323580000003895515162396812215_);" d="M350.9,1.4c4,0,7.5,0.6,10.5,1.7
		c3.1,1.1,5.7,2.6,7.8,4.5c2.1,1.9,3.7,4.1,4.8,6.6c1.1,2.5,1.6,5.2,1.6,7.9c0,2.5-0.3,4.7-0.8,6.7c-0.5,1.9-1.3,3.6-2.3,5
		c-1,1.4-2.3,2.6-3.7,3.6c-1.5,1-3.2,1.8-5.1,2.5c8.9,3.1,13.3,9.1,13.3,18.1c0,4.2-0.8,7.9-2.3,11.1c-1.5,3.1-3.6,5.8-6.2,7.8
		c-2.6,2.1-5.6,3.7-9,4.7c-3.4,1-7,1.6-10.7,1.6c-3.8,0-7.2-0.4-10.2-1.2c-3-0.8-5.6-2.1-7.9-3.8c-2.3-1.7-4.3-4-6.1-6.7
		c-1.7-2.7-3.2-5.9-4.5-9.7l7.6-3.1c0.7-0.3,1.3-0.5,1.9-0.6s1.3-0.2,1.9-0.2c1.2,0,2.2,0.2,3.2,0.7c0.9,0.5,1.6,1.1,2.1,2
		c1.6,3,3.4,5.2,5.2,6.6c1.8,1.4,4,2.1,6.5,2.1c1.9,0,3.6-0.3,5-1c1.4-0.6,2.6-1.5,3.5-2.5c0.9-1,1.6-2.2,2.1-3.4
		c0.5-1.3,0.7-2.6,0.7-3.9c0-1.7-0.1-3.3-0.4-4.6c-0.2-1.4-0.9-2.6-2-3.5c-1.1-1-2.8-1.7-5-2.3c-2.2-0.5-5.3-0.8-9.2-0.8V35.4
		c3.3,0,6-0.3,8.1-0.8c2.1-0.5,3.6-1.2,4.7-2.1c1.1-0.9,1.9-2,2.2-3.3c0.4-1.3,0.5-2.7,0.5-4.2c0-3.1-0.8-5.6-2.3-7.3
		c-1.5-1.7-3.8-2.6-6.9-2.6c-1.3,0-2.5,0.2-3.5,0.5s-2,0.9-2.9,1.5c-0.8,0.6-1.6,1.4-2.2,2.2c-0.6,0.8-1.1,1.8-1.5,2.7
		c-0.6,1.6-1.3,2.8-2.2,3.6c-0.9,0.7-2.1,1.1-3.7,1.1c-0.4,0-0.8,0-1.2-0.1c-0.4,0-0.8-0.1-1.3-0.2l-9-1.6c0.6-4,1.7-7.5,3.4-10.4
		c1.7-3,3.7-5.4,6.2-7.4s5.3-3.4,8.5-4.4S347.3,1.4,350.9,1.4z"/>
</g>
</svg>
