<?xml version="1.0" encoding="UTF-8"?><svg id="Layer_2" xmlns="http://www.w3.org/2000/svg" xmlns:xlink="http://www.w3.org/1999/xlink" viewBox="0 0 138.54 138.54"><defs><style>.cls-1{fill:url(#linear-gradient-2);}.cls-2{fill:url(#linear-gradient-3);}.cls-3{fill:url(#linear-gradient);}</style><linearGradient id="linear-gradient" x1="69.27" y1="2.92" x2="69.27" y2="99.21" gradientUnits="userSpaceOnUse"><stop offset="0" stop-color="#bd74e6"/><stop offset="1" stop-color="#4b40c8"/></linearGradient><linearGradient id="linear-gradient-2" x1="69.27" y1="2.78" x2="69.27" y2="99.47" xlink:href="#linear-gradient"/><linearGradient id="linear-gradient-3" x1="69.27" y1="3.16" x2="69.27" y2="99.46" xlink:href="#linear-gradient"/></defs><g id="Layer_2-2"><path class="cls-3" d="M69.27,0C31.01,0,0,31.01,0,69.27s31.01,69.27,69.27,69.27,69.27-31.01,69.27-69.27S107.53,0,69.27,0Zm.01,124.43c-30.47,0-55.16-24.7-55.16-55.16S38.82,14.11,69.28,14.11s55.16,24.7,55.16,55.16-24.7,55.16-55.16,55.16Z"/><rect class="cls-1" x="41.74" y="48.5" width="55.06" height="13.03" rx="6.52" ry="6.52"/><rect class="cls-2" x="41.74" y="76.18" width="55.06" height="13.03" rx="6.52" ry="6.52"/></g></svg>