<?xml version="1.0" encoding="UTF-8"?><svg id="Layer_2" xmlns="http://www.w3.org/2000/svg" xmlns:xlink="http://www.w3.org/1999/xlink" viewBox="0 0 533.47 83.1"><defs><style>.cls-1{fill:url(#linear-gradient-2);}.cls-2{fill:#fff;}.cls-2,.cls-3{fill-rule:evenodd;}.cls-3{fill:url(#linear-gradient);}.cls-4{fill:#2e2e2e;}</style><linearGradient id="linear-gradient" x1="-130.32" y1="152.86" x2="-130.32" y2="153.86" gradientTransform="translate(10467.5 -7844.01) scale(80 51.32)" gradientUnits="userSpaceOnUse"><stop offset="0" stop-color="#bd74e6"/><stop offset="1" stop-color="#4b40c8"/></linearGradient><linearGradient id="linear-gradient-2" x1="505.09" y1="1.8" x2="505.09" y2="52.37" gradientTransform="matrix(1, 0, 0, 1, 0, 0)" xlink:href="#linear-gradient"/></defs><g id="Layer_1-2"><g><path class="cls-2" d="M5.4,54.3c-2.5,0-5.4-1.9-5.4-7.2V7.1C0,1.9,2.9,0,5.4,0c1.6,0,3.3,.7,5,2l31.1,23.3L72.6,2c1.7-1.3,3.4-2,5-2,2.5,0,5.4,1.9,5.4,7.2V47.2c0,5.3-2.9,7.2-5.4,7.2-1.6,0-3.3-.7-5-2l-31.1-23.4L10.4,52.4c-1.7,1.2-3.4,1.9-5,1.9Z"/><path class="cls-3" d="M1.5,7.2C1.5,1.7,5.1-.1,9.5,3.2L41.5,27.2,73.5,3.2c4.4-3.3,8-1.5,8,4V47.2c0,5.5-3.6,7.3-8,4L41.5,27.2,9.5,51.2c-4.4,3.3-8,1.5-8-4V7.2Z"/></g><path class="cls-1" d="M507.23,1.36c3.95,0,7.47,.56,10.54,1.67,3.07,1.12,5.67,2.63,7.8,4.53,2.12,1.9,3.73,4.11,4.83,6.61,1.1,2.51,1.65,5.15,1.65,7.93,0,2.53-.26,4.75-.77,6.67-.51,1.92-1.27,3.59-2.28,4.99-1.01,1.41-2.25,2.61-3.73,3.59-1.48,.99-3.17,1.81-5.08,2.47,8.85,3.07,13.28,9.09,13.28,18.06,0,4.25-.77,7.94-2.31,11.09s-3.59,5.76-6.18,7.85-5.57,3.65-8.97,4.69c-3.41,1.04-6.96,1.56-10.65,1.56s-7.19-.41-10.16-1.23c-2.96-.82-5.6-2.1-7.91-3.84-2.3-1.74-4.33-3.96-6.06-6.67-1.74-2.71-3.25-5.93-4.53-9.66l7.58-3.08c.66-.29,1.31-.49,1.95-.6s1.27-.16,1.89-.16c1.17,0,2.22,.23,3.16,.69s1.64,1.13,2.11,2c1.65,3.04,3.39,5.24,5.24,6.61,1.85,1.37,4.01,2.06,6.51,2.06,1.9,0,3.56-.32,4.97-.96,1.41-.64,2.58-1.46,3.51-2.47s1.64-2.15,2.11-3.43c.47-1.28,.71-2.58,.71-3.9,0-1.72-.12-3.27-.36-4.64-.24-1.37-.91-2.55-2-3.54s-2.75-1.75-4.97-2.28c-2.21-.53-5.3-.8-9.25-.8v-11.75c3.33,0,6.02-.26,8.07-.77,2.05-.51,3.63-1.22,4.75-2.11,1.11-.9,1.86-1.99,2.22-3.27s.55-2.69,.55-4.23c0-3.15-.76-5.57-2.28-7.27-1.52-1.7-3.84-2.55-6.94-2.55-1.28,0-2.45,.18-3.51,.55s-2.01,.86-2.85,1.48c-.84,.62-1.56,1.35-2.17,2.2-.61,.84-1.09,1.76-1.46,2.74-.59,1.65-1.33,2.84-2.22,3.57-.9,.73-2.11,1.1-3.65,1.1-.37,0-.76-.02-1.18-.05-.42-.04-.85-.09-1.29-.16l-9.01-1.59c.59-3.99,1.71-7.47,3.38-10.43,1.66-2.96,3.73-5.43,6.2-7.41s5.3-3.45,8.48-4.42,6.61-1.46,10.27-1.46Z"/><g><path class="cls-4" d="M360.21,39.65V21.54h1.82c.35,0,.58,.07,.72,.2,.13,.13,.22,.36,.27,.68l.21,2.83c.62-1.26,1.39-2.25,2.3-2.96,.91-.71,1.98-1.06,3.21-1.06,.5,0,.95,.06,1.36,.17s.78,.27,1.13,.47l-.41,2.38c-.08,.3-.27,.45-.55,.45-.17,0-.42-.06-.77-.17-.35-.11-.83-.17-1.45-.17-1.11,0-2.04,.32-2.78,.97-.75,.64-1.37,1.58-1.87,2.81v11.53h-3.18Z"/><path class="cls-4" d="M380,21.25c1.08,0,2.09,.18,3,.55,.92,.36,1.71,.89,2.38,1.57,.67,.69,1.19,1.53,1.56,2.54,.38,1.01,.56,2.16,.56,3.44,0,.5-.05,.83-.16,1s-.31,.25-.61,.25h-12.05c.02,1.14,.18,2.14,.46,2.99s.68,1.55,1.18,2.12,1.1,.99,1.79,1.27c.69,.28,1.47,.42,2.33,.42,.8,0,1.49-.09,2.07-.28,.58-.18,1.08-.38,1.49-.6,.42-.21,.77-.41,1.05-.6s.52-.28,.72-.28c.26,0,.46,.1,.61,.3l.89,1.16c-.39,.48-.86,.89-1.41,1.24-.55,.35-1.14,.64-1.76,.87-.63,.23-1.27,.4-1.94,.51-.67,.11-1.33,.17-1.99,.17-1.25,0-2.41-.21-3.46-.63-1.06-.42-1.97-1.04-2.74-1.86-.77-.82-1.37-1.83-1.8-3.03-.43-1.2-.64-2.59-.64-4.15,0-1.26,.19-2.44,.58-3.54,.39-1.1,.95-2.05,1.67-2.85,.73-.81,1.62-1.44,2.67-1.9,1.05-.46,2.23-.69,3.54-.69Zm.07,2.34c-1.54,0-2.75,.44-3.63,1.33-.88,.89-1.43,2.12-1.65,3.69h9.85c0-.74-.1-1.42-.3-2.03-.2-.61-.5-1.14-.89-1.59s-.87-.79-1.44-1.04c-.57-.24-1.21-.37-1.94-.37Z"/><path class="cls-4" d="M404.43,21.54v24.25h-3.18v-8.82c-.76,.88-1.63,1.59-2.6,2.13-.97,.54-2.08,.8-3.33,.8-1.04,0-1.98-.2-2.83-.6-.85-.4-1.57-.99-2.16-1.76-.6-.77-1.05-1.74-1.38-2.9s-.48-2.49-.48-3.99c0-1.33,.18-2.58,.54-3.73s.87-2.15,1.55-3c.67-.85,1.49-1.51,2.46-1.99s2.06-.72,3.29-.72,2.16,.21,2.98,.63,1.55,1.01,2.19,1.77l.21-1.41c.12-.44,.41-.66,.86-.66h1.9Zm-8.06,15.79c1.04,0,1.95-.24,2.73-.71s1.5-1.15,2.16-2.02v-8.76c-.57-.76-1.21-1.31-1.91-1.64-.7-.33-1.48-.49-2.32-.49-1.69,0-2.99,.6-3.9,1.81-.91,1.2-1.36,2.92-1.36,5.15,0,1.18,.1,2.19,.3,3.03,.2,.84,.5,1.53,.89,2.07,.39,.54,.88,.94,1.45,1.19,.57,.25,1.23,.38,1.97,.38Z"/><path class="cls-4" d="M410.74,21.54v11.55c0,1.37,.32,2.43,.95,3.18s1.59,1.13,2.86,1.13c.93,0,1.81-.22,2.63-.66,.82-.44,1.58-1.05,2.27-1.84v-13.36h3.18v18.12h-1.9c-.45,0-.74-.22-.86-.66l-.25-1.95c-.79,.87-1.67,1.57-2.65,2.1s-2.1,.8-3.36,.8c-.99,0-1.86-.16-2.62-.49-.76-.33-1.39-.79-1.9-1.39-.51-.6-.9-1.32-1.15-2.16-.26-.85-.38-1.78-.38-2.81v-11.55h3.18Z"/><path class="cls-4" d="M430.34,15.85c0,.31-.06,.6-.19,.87-.13,.27-.29,.51-.5,.72-.21,.21-.45,.37-.72,.49s-.57,.18-.88,.18-.6-.06-.87-.18c-.27-.12-.51-.28-.72-.49-.21-.21-.37-.45-.49-.72s-.18-.56-.18-.87,.06-.6,.18-.89,.28-.52,.49-.73c.21-.21,.45-.37,.72-.49,.27-.12,.56-.18,.87-.18s.6,.06,.88,.18,.52,.28,.72,.49c.21,.21,.38,.45,.5,.73,.12,.28,.19,.58,.19,.89Zm-.72,5.69v18.12h-3.18V21.54h3.18Z"/><path class="cls-4" d="M433.45,39.65V21.54h1.82c.35,0,.58,.07,.72,.2,.13,.13,.22,.36,.27,.68l.21,2.83c.62-1.26,1.39-2.25,2.3-2.96,.91-.71,1.98-1.06,3.21-1.06,.5,0,.95,.06,1.36,.17s.78,.27,1.13,.47l-.41,2.38c-.08,.3-.27,.45-.55,.45-.17,0-.42-.06-.77-.17-.35-.11-.83-.17-1.45-.17-1.11,0-2.04,.32-2.78,.97-.75,.64-1.37,1.58-1.87,2.81v11.53h-3.18Z"/><path class="cls-4" d="M453.25,21.25c1.08,0,2.09,.18,3,.55,.92,.36,1.71,.89,2.38,1.57,.67,.69,1.19,1.53,1.56,2.54,.38,1.01,.56,2.16,.56,3.44,0,.5-.05,.83-.16,1s-.31,.25-.61,.25h-12.05c.02,1.14,.18,2.14,.46,2.99s.68,1.55,1.18,2.12,1.1,.99,1.79,1.27c.69,.28,1.47,.42,2.33,.42,.8,0,1.49-.09,2.07-.28,.58-.18,1.08-.38,1.49-.6,.42-.21,.77-.41,1.05-.6s.52-.28,.72-.28c.26,0,.46,.1,.61,.3l.89,1.16c-.39,.48-.86,.89-1.41,1.24-.55,.35-1.14,.64-1.76,.87-.63,.23-1.27,.4-1.94,.51-.67,.11-1.33,.17-1.99,.17-1.25,0-2.41-.21-3.46-.63-1.06-.42-1.97-1.04-2.74-1.86-.77-.82-1.37-1.83-1.8-3.03-.43-1.2-.64-2.59-.64-4.15,0-1.26,.19-2.44,.58-3.54,.39-1.1,.95-2.05,1.67-2.85,.73-.81,1.62-1.44,2.67-1.9,1.05-.46,2.23-.69,3.54-.69Zm.07,2.34c-1.54,0-2.75,.44-3.63,1.33-.88,.89-1.43,2.12-1.65,3.69h9.85c0-.74-.1-1.42-.3-2.03-.2-.61-.5-1.14-.89-1.59s-.87-.79-1.44-1.04c-.57-.24-1.21-.37-1.94-.37Z"/></g><g><path class="cls-4" d="M270.83,21.24c.79,0,1.52,.09,2.21,.26s1.31,.43,1.87,.76h4.92v1.18c0,.39-.25,.64-.75,.75l-2.06,.29c.41,.77,.61,1.64,.61,2.59,0,.88-.17,1.68-.51,2.41-.34,.72-.81,1.34-1.41,1.85-.6,.51-1.32,.91-2.15,1.18-.83,.27-1.74,.41-2.73,.41-.85,0-1.65-.1-2.4-.3-.38,.25-.67,.51-.87,.79-.2,.28-.29,.56-.29,.83,0,.44,.17,.78,.52,1.01,.35,.23,.8,.39,1.38,.49s1.22,.15,1.95,.15h2.23c.76,0,1.5,.07,2.23,.2,.73,.13,1.38,.35,1.95,.65s1.03,.72,1.38,1.25c.35,.53,.52,1.22,.52,2.06,0,.78-.19,1.54-.58,2.28-.39,.74-.95,1.39-1.67,1.96-.73,.57-1.62,1.03-2.67,1.38-1.05,.34-2.24,.52-3.56,.52s-2.48-.13-3.48-.39-1.82-.62-2.48-1.06c-.66-.44-1.15-.95-1.48-1.53-.33-.58-.49-1.18-.49-1.82,0-.9,.28-1.66,.85-2.28s1.34-1.12,2.33-1.5c-.51-.24-.92-.56-1.22-.96-.3-.4-.46-.93-.46-1.6,0-.26,.05-.53,.14-.81s.24-.56,.44-.83c.2-.27,.44-.54,.72-.79s.62-.47,1-.66c-.89-.5-1.59-1.17-2.1-1.99-.51-.83-.76-1.8-.76-2.91,0-.88,.17-1.68,.51-2.41,.34-.72,.81-1.33,1.42-1.84s1.33-.9,2.17-1.17c.84-.27,1.76-.41,2.76-.41Zm5.65,19.34c0-.46-.12-.83-.38-1.11-.25-.28-.59-.5-1.02-.65-.43-.15-.92-.26-1.48-.34-.56-.07-1.15-.11-1.77-.11h-1.9c-.64,0-1.26-.08-1.84-.24-.68,.32-1.23,.72-1.65,1.18-.42,.46-.63,1.02-.63,1.67,0,.41,.1,.78,.31,1.14,.21,.35,.53,.66,.96,.91,.43,.26,.97,.46,1.62,.61,.65,.15,1.42,.22,2.3,.22s1.63-.08,2.31-.24c.68-.16,1.25-.38,1.73-.67,.47-.29,.83-.64,1.08-1.04,.25-.4,.38-.85,.38-1.33Zm-5.65-9.77c.64,0,1.21-.09,1.71-.27,.49-.18,.91-.43,1.24-.75,.33-.32,.58-.71,.75-1.15,.17-.45,.25-.94,.25-1.48,0-1.11-.34-1.99-1.01-2.65-.67-.66-1.65-.98-2.94-.98s-2.25,.33-2.92,.98-1.01,1.54-1.01,2.65c0,.54,.09,1.03,.26,1.48,.17,.45,.43,.83,.76,1.15,.33,.32,.75,.57,1.23,.75,.49,.18,1.05,.27,1.68,.27Z"/><path class="cls-4" d="M284.76,13.31v26.34h-3.18V13.31h3.18Z"/><path class="cls-4" d="M295.92,21.25c1.32,0,2.52,.22,3.58,.66,1.07,.44,1.97,1.07,2.72,1.88,.75,.81,1.32,1.79,1.72,2.94,.4,1.15,.6,2.44,.6,3.85s-.2,2.72-.6,3.86-.97,2.12-1.72,2.93c-.75,.81-1.65,1.43-2.72,1.87-1.07,.43-2.26,.65-3.58,.65s-2.52-.22-3.59-.65c-1.07-.44-1.98-1.06-2.73-1.87-.75-.81-1.33-1.79-1.73-2.93s-.61-2.43-.61-3.86,.2-2.7,.61-3.85c.41-1.15,.98-2.13,1.73-2.94,.75-.81,1.66-1.44,2.73-1.88,1.07-.44,2.26-.66,3.59-.66Zm0,16.17c1.79,0,3.12-.6,4.01-1.8,.88-1.2,1.32-2.87,1.32-5.02s-.44-3.84-1.32-5.04c-.88-1.2-2.22-1.81-4.01-1.81-.91,0-1.69,.15-2.36,.46-.67,.31-1.22,.76-1.67,1.34s-.78,1.3-1,2.16c-.22,.85-.33,1.81-.33,2.89s.11,2.03,.33,2.88c.22,.85,.55,1.56,1,2.14s1,1.02,1.67,1.33c.67,.31,1.46,.46,2.36,.46Z"/><path class="cls-4" d="M306.79,39.65V13.31h3.2v10.84c.75-.87,1.61-1.57,2.58-2.1,.97-.53,2.08-.8,3.33-.8,1.05,0,2,.2,2.84,.59s1.57,.98,2.16,1.76c.6,.78,1.06,1.75,1.38,2.9,.32,1.15,.48,2.48,.48,3.98,0,1.33-.18,2.58-.54,3.73-.36,1.15-.87,2.15-1.55,2.99s-1.5,1.5-2.47,1.99c-.97,.48-2.07,.72-3.28,.72s-2.16-.23-2.98-.68c-.82-.45-1.53-1.08-2.14-1.9l-.16,1.65c-.1,.45-.37,.68-.82,.68h-2.06Zm8.08-15.86c-1.04,0-1.95,.24-2.73,.72-.78,.48-1.5,1.15-2.16,2.02v8.76c.57,.79,1.21,1.34,1.91,1.66,.7,.32,1.47,.48,2.33,.48,1.69,0,2.99-.6,3.9-1.81,.91-1.2,1.36-2.92,1.36-5.15,0-1.18-.1-2.19-.31-3.04-.21-.85-.51-1.54-.9-2.08s-.88-.94-1.45-1.19-1.22-.38-1.95-.38Z"/><path class="cls-4" d="M338.2,39.65h-1.41c-.31,0-.56-.05-.75-.14-.19-.1-.32-.3-.38-.61l-.36-1.68c-.48,.43-.94,.81-1.39,1.15s-.93,.63-1.43,.86-1.03,.41-1.6,.53-1.2,.18-1.89,.18-1.36-.1-1.98-.3c-.61-.2-1.15-.49-1.6-.89-.45-.39-.81-.89-1.08-1.5-.27-.6-.4-1.32-.4-2.14,0-.72,.2-1.41,.59-2.07s1.03-1.25,1.9-1.77c.88-.51,2.02-.94,3.44-1.27s3.15-.49,5.2-.49v-1.42c0-1.42-.3-2.49-.9-3.21-.6-.73-1.49-1.09-2.67-1.09-.78,0-1.43,.1-1.96,.29-.53,.2-.99,.42-1.38,.66-.39,.24-.72,.47-1,.66-.28,.2-.56,.3-.83,.3-.21,0-.4-.06-.56-.17s-.29-.25-.38-.42l-.57-1.02c1-.97,2.08-1.69,3.24-2.16,1.16-.48,2.44-.72,3.84-.72,1.01,0,1.91,.17,2.7,.5,.79,.33,1.45,.8,1.99,1.4,.54,.6,.94,1.32,1.22,2.16,.27,.85,.41,1.78,.41,2.79v11.59Zm-8.26-1.95c.56,0,1.07-.06,1.54-.17,.46-.11,.9-.27,1.31-.48,.41-.21,.81-.46,1.18-.76,.38-.3,.74-.64,1.1-1.02v-3.74c-1.47,0-2.71,.09-3.74,.28-1.03,.19-1.86,.43-2.5,.73-.64,.3-1.11,.65-1.4,1.06-.29,.41-.44,.86-.44,1.37s.08,.89,.23,1.24,.36,.63,.63,.85,.57,.38,.93,.49c.36,.1,.75,.15,1.16,.15Z"/><path class="cls-4" d="M344.78,13.31v26.34h-3.18V13.31h3.18Z"/></g><g><path class="cls-4" d="M118.08,26.51c-.17,.2-.33,.36-.48,.48-.16,.12-.38,.18-.66,.18s-.52-.07-.74-.2c-.22-.13-.47-.28-.74-.44-.27-.16-.6-.31-.97-.44-.37-.13-.83-.2-1.38-.2-.68,0-1.27,.12-1.76,.38-.5,.25-.9,.61-1.23,1.07-.32,.47-.56,1.03-.71,1.71-.16,.67-.23,1.43-.23,2.28,0,1.78,.34,3.14,1.03,4.1,.68,.95,1.63,1.43,2.83,1.43,.64,0,1.15-.08,1.53-.24,.38-.16,.69-.34,.96-.54,.26-.2,.5-.38,.72-.54s.5-.25,.83-.25c.44,0,.77,.16,1,.48l1.61,1.98c-.57,.66-1.17,1.19-1.81,1.6-.63,.41-1.28,.73-1.94,.97-.66,.23-1.33,.39-1.99,.48-.67,.09-1.32,.13-1.95,.13-1.13,0-2.21-.21-3.25-.64-1.03-.43-1.94-1.05-2.72-1.87-.78-.82-1.4-1.82-1.86-3.01-.46-1.19-.69-2.55-.69-4.08,0-1.33,.2-2.58,.6-3.75,.4-1.16,.99-2.17,1.77-3.02,.78-.85,1.75-1.52,2.9-2.01s2.48-.73,4-.73,2.73,.23,3.83,.7c1.1,.46,2.09,1.14,2.97,2.04l-1.47,1.95Z"/><path class="cls-4" d="M128.56,21.82c1.41,0,2.69,.22,3.84,.66,1.16,.44,2.15,1.07,2.98,1.9,.83,.82,1.47,1.82,1.93,3,.46,1.17,.69,2.5,.69,3.96s-.23,2.81-.69,4c-.46,1.19-1.1,2.19-1.93,3.02-.83,.83-1.82,1.47-2.98,1.91s-2.44,.67-3.84,.67-2.71-.22-3.87-.67-2.16-1.08-3-1.91c-.84-.83-1.49-1.84-1.95-3.02-.46-1.19-.69-2.52-.69-4s.23-2.79,.69-3.96c.46-1.17,1.11-2.17,1.95-3,.84-.82,1.84-1.45,3-1.9,1.16-.44,2.45-.66,3.87-.66Zm0,15c1.28,0,2.21-.45,2.82-1.35,.6-.9,.9-2.27,.9-4.1s-.3-3.2-.9-4.1c-.6-.89-1.54-1.34-2.82-1.34s-2.27,.45-2.88,1.34c-.61,.89-.91,2.26-.91,4.1s.3,3.2,.91,4.1c.61,.9,1.57,1.35,2.88,1.35Z"/><path class="cls-4" d="M139.25,40.65V22.11h3.43c.35,0,.64,.08,.87,.23,.23,.16,.4,.39,.49,.7l.3,1c.31-.32,.63-.62,.97-.89,.33-.27,.69-.5,1.08-.7,.39-.2,.8-.35,1.25-.46,.45-.11,.94-.17,1.48-.17,1.12,0,2.05,.29,2.78,.87,.73,.58,1.29,1.35,1.67,2.32,.31-.57,.69-1.06,1.13-1.47,.45-.41,.93-.73,1.45-.98s1.07-.44,1.65-.55c.58-.12,1.15-.18,1.73-.18,1.06,0,2,.16,2.83,.47s1.51,.77,2.07,1.38,.97,1.34,1.26,2.22c.29,.88,.43,1.87,.43,2.98v11.79h-5.54v-11.79c0-1.92-.82-2.88-2.47-2.88-.75,0-1.38,.25-1.87,.74-.5,.49-.74,1.21-.74,2.14v11.79h-5.54v-11.79c0-1.06-.21-1.81-.63-2.24-.42-.43-1.03-.64-1.84-.64-.5,0-.97,.11-1.42,.34-.45,.23-.87,.53-1.26,.91v13.41h-5.54Z"/><path class="cls-4" d="M168.26,46.54V22.11h3.43c.35,0,.64,.08,.87,.23,.23,.16,.4,.39,.49,.7l.41,1.36c.36-.39,.74-.75,1.15-1.07,.41-.32,.85-.6,1.32-.83,.47-.23,.98-.41,1.52-.55,.54-.13,1.14-.2,1.78-.2,.97,0,1.86,.21,2.68,.64s1.53,1.05,2.13,1.86c.6,.81,1.06,1.8,1.4,2.98,.34,1.17,.51,2.51,.51,4,0,1.4-.19,2.68-.58,3.86-.39,1.18-.93,2.21-1.63,3.08s-1.53,1.55-2.5,2.04c-.97,.49-2.05,.73-3.23,.73-.97,0-1.78-.14-2.43-.41-.66-.27-1.25-.64-1.79-1.11v7.12h-5.54Zm9.05-20.55c-.41,0-.77,.04-1.1,.12s-.63,.19-.91,.33-.54,.33-.78,.55c-.24,.22-.48,.47-.72,.76v7.87c.42,.46,.87,.79,1.36,.97,.49,.18,1,.28,1.54,.28s.98-.1,1.41-.3c.43-.2,.8-.53,1.12-.97,.32-.45,.56-1.03,.74-1.74,.18-.71,.27-1.58,.27-2.61s-.07-1.8-.21-2.47c-.14-.67-.34-1.21-.6-1.62-.26-.41-.56-.71-.92-.89-.36-.18-.76-.27-1.2-.27Z"/><path class="cls-4" d="M195.41,21.82c1.41,0,2.69,.22,3.84,.66,1.16,.44,2.15,1.07,2.98,1.9,.83,.82,1.47,1.82,1.93,3,.46,1.17,.69,2.5,.69,3.96s-.23,2.81-.69,4c-.46,1.19-1.1,2.19-1.93,3.02-.83,.83-1.82,1.47-2.98,1.91s-2.44,.67-3.84,.67-2.71-.22-3.87-.67-2.16-1.08-3-1.91c-.84-.83-1.49-1.84-1.95-3.02-.46-1.19-.69-2.52-.69-4s.23-2.79,.69-3.96c.46-1.17,1.11-2.17,1.95-3,.84-.82,1.84-1.45,3-1.9,1.16-.44,2.45-.66,3.87-.66Zm0,15c1.28,0,2.21-.45,2.82-1.35,.6-.9,.9-2.27,.9-4.1s-.3-3.2-.9-4.1c-.6-.89-1.54-1.34-2.82-1.34s-2.27,.45-2.88,1.34c-.61,.89-.91,2.26-.91,4.1s.3,3.2,.91,4.1c.61,.9,1.57,1.35,2.88,1.35Z"/><path class="cls-4" d="M217.44,26.17c-.14,.23-.29,.39-.46,.48-.16,.1-.37,.14-.62,.14-.26,0-.53-.06-.79-.17-.26-.11-.55-.24-.85-.37-.3-.13-.65-.25-1.03-.37-.38-.11-.82-.17-1.31-.17-.7,0-1.24,.13-1.62,.4-.38,.27-.56,.64-.56,1.12,0,.35,.12,.63,.37,.86,.24,.23,.57,.43,.97,.6,.41,.17,.86,.34,1.38,.49s1.04,.33,1.57,.52c.54,.19,1.06,.41,1.57,.67,.51,.26,.97,.57,1.38,.95,.41,.38,.73,.83,.97,1.37,.24,.54,.37,1.18,.37,1.93,0,.92-.17,1.76-.5,2.54-.33,.78-.83,1.44-1.49,2-.66,.56-1.48,1-2.45,1.31-.97,.31-2.09,.46-3.35,.46-.63,0-1.26-.06-1.9-.18s-1.24-.28-1.83-.48c-.59-.2-1.14-.44-1.64-.72-.5-.28-.93-.58-1.29-.9l1.29-2.04c.16-.24,.34-.43,.55-.56,.21-.14,.49-.21,.84-.21,.32,0,.61,.07,.87,.21,.26,.14,.53,.3,.83,.46s.65,.32,1.05,.46c.4,.14,.9,.21,1.51,.21,.43,0,.79-.04,1.09-.13,.3-.09,.54-.21,.72-.37,.18-.16,.31-.33,.39-.52,.08-.19,.13-.39,.13-.59,0-.37-.13-.67-.38-.91s-.58-.44-.98-.62-.87-.33-1.39-.48c-.52-.15-1.05-.32-1.58-.51-.54-.19-1.06-.42-1.58-.69-.52-.27-.98-.61-1.39-1.02s-.73-.92-.98-1.51c-.25-.6-.38-1.32-.38-2.16,0-.79,.15-1.53,.46-2.24,.3-.71,.76-1.33,1.37-1.87,.61-.54,1.37-.96,2.29-1.28s1.99-.47,3.22-.47c.67,0,1.31,.06,1.94,.18s1.21,.29,1.76,.5c.55,.21,1.05,.47,1.5,.76s.85,.61,1.2,.96l-1.25,1.95Z"/><path class="cls-4" d="M227.99,21.82c1.23,0,2.35,.19,3.37,.57,1.02,.38,1.9,.94,2.63,1.66,.73,.73,1.31,1.62,1.72,2.67s.62,2.25,.62,3.58c0,.42-.02,.76-.05,1.02-.04,.26-.1,.47-.2,.63-.1,.16-.22,.26-.38,.32-.16,.06-.37,.09-.62,.09h-10.69c.18,1.55,.65,2.67,1.41,3.37,.76,.7,1.75,1.05,2.95,1.05,.64,0,1.2-.08,1.66-.23,.46-.15,.88-.33,1.24-.52,.36-.19,.7-.36,1-.52,.3-.15,.62-.23,.96-.23,.44,0,.78,.16,1,.48l1.61,1.98c-.57,.66-1.19,1.19-1.85,1.6-.66,.41-1.34,.73-2.04,.97s-1.39,.39-2.09,.48c-.7,.09-1.36,.13-1.99,.13-1.3,0-2.52-.21-3.66-.63-1.14-.42-2.13-1.05-2.99-1.89-.85-.83-1.53-1.87-2.02-3.11-.5-1.24-.74-2.68-.74-4.33,0-1.24,.21-2.41,.63-3.52,.42-1.11,1.03-2.08,1.82-2.92,.79-.83,1.75-1.5,2.88-1.98,1.13-.49,2.4-.73,3.82-.73Zm.11,3.83c-1.06,0-1.89,.3-2.49,.9-.6,.6-.99,1.47-1.18,2.6h6.92c0-.44-.06-.87-.17-1.29-.11-.42-.3-.79-.55-1.12-.26-.33-.59-.59-1.01-.8-.42-.2-.92-.3-1.52-.3Z"/><path class="cls-4" d="M237.72,40.65V22.11h3.29c.27,0,.5,.02,.69,.07s.34,.12,.46,.22c.12,.1,.22,.24,.29,.4s.12,.37,.17,.61l.3,1.73c.68-1.05,1.44-1.88,2.29-2.49,.85-.61,1.77-.91,2.77-.91,.85,0,1.53,.2,2.04,.61l-.71,4.08c-.05,.25-.14,.43-.29,.53-.14,.1-.33,.15-.57,.15-.2,0-.44-.03-.72-.08s-.62-.08-1.04-.08c-1.45,0-2.6,.77-3.43,2.32v11.37h-5.54Z"/></g><g><path class="cls-4" d="M157.53,78.54c-.16,.31-.38,.47-.69,.47h-1.12l3.51-6.5-4.46-16.02h1.24c.16,0,.27,.04,.34,.11,.07,.07,.12,.17,.16,.29l3.51,12.94c.04,.17,.08,.33,.09,.5,.02,.17,.04,.33,.06,.5,.07-.17,.14-.34,.21-.51s.15-.34,.24-.49l6.71-12.99c.06-.12,.13-.21,.23-.27,.1-.06,.2-.08,.3-.08h1.22l-11.55,22.06Z"/><path class="cls-4" d="M178.44,71.7c-.53,.42-1.05,.76-1.56,1-.51,.25-1.02,.41-1.55,.5-.52,.09-1.08,.13-1.67,.13-.96,0-1.79-.17-2.5-.49-.71-.33-1.3-.79-1.76-1.38-.47-.59-.82-1.29-1.05-2.11-.23-.81-.35-1.7-.35-2.66,0-.88,.09-1.75,.28-2.62,.18-.86,.45-1.69,.79-2.47,.34-.78,.76-1.5,1.25-2.16,.49-.66,1.04-1.23,1.66-1.71,.61-.48,1.28-.86,2-1.13,.72-.27,1.49-.41,2.3-.41,.55,0,1.04,.05,1.48,.16s.84,.26,1.21,.46c.37,.2,.7,.44,1,.72,.3,.28,.58,.59,.84,.94l-.47,.55c-.1,.12-.22,.18-.35,.18-.11,0-.25-.09-.41-.27-.16-.18-.38-.37-.65-.58-.27-.21-.63-.4-1.06-.58-.43-.18-.98-.27-1.64-.27-.94,0-1.81,.25-2.62,.75-.81,.5-1.51,1.17-2.11,2.02-.6,.85-1.06,1.82-1.4,2.93-.34,1.11-.51,2.26-.51,3.47,0,.77,.09,1.48,.26,2.14,.17,.66,.44,1.22,.8,1.7s.82,.85,1.36,1.12,1.19,.4,1.94,.4c.59,0,1.12-.06,1.59-.19,.47-.13,.88-.29,1.25-.48,.36-.19,.68-.4,.95-.63,.27-.23,.52-.44,.73-.63,.21-.19,.39-.35,.54-.48,.15-.13,.29-.19,.41-.19s.24,.06,.35,.17l.35,.43c-.59,.66-1.15,1.2-1.68,1.62Z"/><path class="cls-4" d="M186.98,73.34c-.89,0-1.7-.16-2.43-.47-.73-.31-1.35-.76-1.87-1.35s-.92-1.31-1.2-2.15-.43-1.8-.43-2.87c0-1.35,.2-2.64,.6-3.89,.4-1.24,.97-2.34,1.7-3.29s1.6-1.7,2.6-2.27c1-.56,2.11-.84,3.31-.84,.89,0,1.7,.16,2.43,.48s1.35,.77,1.87,1.35,.92,1.3,1.2,2.15c.28,.85,.43,1.79,.43,2.84,0,1.35-.2,2.64-.61,3.88-.41,1.24-.97,2.33-1.7,3.29s-1.59,1.71-2.59,2.28c-1,.57-2.11,.85-3.31,.85Zm.13-1.25c.97,0,1.85-.25,2.65-.76,.8-.51,1.48-1.18,2.05-2.02,.57-.84,1.01-1.81,1.31-2.89s.46-2.2,.46-3.35c0-1.78-.4-3.16-1.19-4.13-.79-.97-1.89-1.46-3.29-1.46-.65,0-1.25,.12-1.82,.34-.57,.23-1.09,.55-1.57,.96s-.91,.9-1.3,1.46c-.38,.56-.71,1.18-.97,1.85-.26,.67-.46,1.38-.6,2.12-.14,.75-.21,1.51-.21,2.29,0,1.77,.39,3.15,1.18,4.12,.79,.98,1.89,1.46,3.3,1.46Z"/><path class="cls-4" d="M207.59,73.13c-.21,0-.36-.05-.44-.15-.08-.1-.12-.22-.12-.37l.55-5.3c-.43,.9-.92,1.73-1.46,2.47-.54,.74-1.11,1.38-1.71,1.91-.6,.53-1.23,.94-1.89,1.23-.66,.29-1.33,.44-2.01,.44-.72,0-1.36-.14-1.91-.42-.55-.28-1-.67-1.37-1.19s-.65-1.13-.84-1.86-.28-1.54-.28-2.44c0-.85,.09-1.71,.27-2.6,.18-.89,.43-1.75,.76-2.58,.33-.83,.73-1.61,1.2-2.34,.47-.73,1.01-1.37,1.61-1.92,.6-.55,1.26-.98,1.97-1.3,.71-.32,1.48-.48,2.29-.48,.9,0,1.73,.2,2.49,.59,.76,.4,1.38,.99,1.87,1.78l1.22-9.82h1.54l-2.98,24.33h-.77Zm-6.57-1.07c.64,0,1.27-.18,1.91-.53,.63-.35,1.25-.85,1.85-1.5,.6-.65,1.15-1.42,1.67-2.33s.98-1.92,1.38-3.02l.58-4.82c-.48-.87-1.08-1.48-1.79-1.84-.71-.36-1.46-.54-2.22-.54-.7,0-1.36,.14-1.96,.43-.61,.28-1.16,.67-1.66,1.16-.5,.49-.94,1.06-1.32,1.71s-.71,1.33-.97,2.06c-.26,.72-.46,1.47-.6,2.24-.14,.77-.21,1.51-.21,2.22,0,1.49,.28,2.66,.85,3.5,.57,.84,1.4,1.25,2.49,1.25Z"/><path class="cls-4" d="M224.78,59.66c0,.46-.06,.89-.18,1.3-.12,.41-.34,.8-.65,1.17-.31,.37-.74,.72-1.27,1.04-.54,.33-1.22,.63-2.06,.9-.84,.27-1.83,.52-2.99,.74-1.16,.22-2.52,.41-4.08,.58-.02,.23-.04,.47-.05,.69-.01,.23-.02,.45-.02,.68,0,1.66,.38,2.96,1.13,3.9,.75,.94,1.89,1.4,3.4,1.4,.59,0,1.12-.06,1.6-.19,.47-.13,.9-.29,1.27-.49,.37-.2,.7-.41,.99-.63,.28-.22,.54-.44,.76-.64,.22-.2,.42-.37,.58-.49,.16-.13,.31-.19,.44-.19s.25,.06,.35,.17l.37,.43c-.55,.58-1.08,1.08-1.6,1.5-.52,.42-1.04,.76-1.57,1.03s-1.08,.47-1.65,.59-1.18,.19-1.82,.19c-.93,0-1.75-.15-2.47-.46-.72-.31-1.32-.74-1.81-1.3-.49-.56-.86-1.25-1.12-2.06-.26-.81-.38-1.71-.38-2.72,0-.84,.08-1.68,.25-2.53,.17-.85,.42-1.66,.74-2.44,.33-.78,.74-1.51,1.22-2.19,.49-.68,1.04-1.27,1.66-1.77,.62-.5,1.32-.9,2.07-1.19s1.58-.44,2.46-.44c.81,0,1.5,.12,2.07,.34,.56,.23,1.02,.51,1.37,.85,.35,.34,.6,.71,.76,1.1s.23,.77,.23,1.11Zm-4.51-2.24c-.89,0-1.7,.19-2.42,.57-.72,.38-1.35,.88-1.91,1.51s-1.01,1.36-1.39,2.19c-.37,.83-.65,1.7-.83,2.6,1.42-.16,2.64-.34,3.66-.54,1.03-.21,1.89-.42,2.61-.65,.71-.23,1.29-.48,1.73-.74s.78-.54,1.03-.83c.25-.29,.41-.58,.49-.88,.08-.3,.12-.61,.12-.94,0-.23-.05-.49-.16-.76-.11-.27-.28-.52-.53-.74-.25-.22-.57-.41-.96-.56-.4-.15-.88-.23-1.46-.23Z"/><path class="cls-4" d="M227.32,70.33c0-.07,0-.15,0-.25,0-.1,.02-.25,.03-.45,.02-.2,.04-.46,.08-.78,.04-.32,.09-.72,.14-1.21l1.14-9.45h-2.19c-.22,0-.33-.11-.33-.32l.08-.69,2.62-.2,1.1-5.95c.02-.1,.07-.19,.15-.27s.17-.12,.28-.12h.77l-.79,6.35h4.82l-.13,1.19h-4.82l-1.15,9.39c-.06,.46-.1,.83-.13,1.12-.03,.29-.06,.53-.08,.71s-.04,.32-.04,.41c0,.09,0,.16,0,.2,0,.72,.17,1.25,.51,1.57,.34,.32,.78,.48,1.31,.48,.37,0,.69-.06,.98-.18,.28-.12,.53-.24,.74-.38s.38-.27,.52-.38,.23-.18,.3-.18,.12,.01,.15,.04c.03,.03,.07,.07,.1,.12l.3,.7c-.45,.47-.99,.85-1.62,1.14s-1.27,.43-1.91,.43c-.91,0-1.63-.25-2.15-.75-.52-.5-.78-1.27-.79-2.31Z"/><path class="cls-4" d="M248.08,59.66c0,.46-.06,.89-.18,1.3-.12,.41-.34,.8-.65,1.17-.31,.37-.74,.72-1.27,1.04-.54,.33-1.22,.63-2.06,.9-.84,.27-1.83,.52-2.99,.74-1.16,.22-2.52,.41-4.08,.58-.02,.23-.04,.47-.05,.69-.01,.23-.02,.45-.02,.68,0,1.66,.38,2.96,1.13,3.9,.75,.94,1.89,1.4,3.4,1.4,.59,0,1.12-.06,1.6-.19,.47-.13,.9-.29,1.27-.49,.37-.2,.7-.41,.99-.63,.28-.22,.54-.44,.76-.64,.22-.2,.42-.37,.58-.49,.16-.13,.31-.19,.44-.19s.25,.06,.35,.17l.37,.43c-.55,.58-1.08,1.08-1.6,1.5-.52,.42-1.04,.76-1.57,1.03s-1.08,.47-1.65,.59-1.18,.19-1.82,.19c-.93,0-1.75-.15-2.47-.46-.72-.31-1.32-.74-1.81-1.3-.49-.56-.86-1.25-1.12-2.06-.26-.81-.38-1.71-.38-2.72,0-.84,.08-1.68,.25-2.53,.17-.85,.42-1.66,.74-2.44,.33-.78,.74-1.51,1.22-2.19,.49-.68,1.04-1.27,1.66-1.77,.62-.5,1.32-.9,2.07-1.19s1.58-.44,2.46-.44c.81,0,1.5,.12,2.07,.34,.56,.23,1.02,.51,1.37,.85,.35,.34,.6,.71,.76,1.1s.23,.77,.23,1.11Zm-4.51-2.24c-.89,0-1.7,.19-2.42,.57-.72,.38-1.35,.88-1.91,1.51s-1.01,1.36-1.39,2.19c-.37,.83-.65,1.7-.83,2.6,1.42-.16,2.64-.34,3.66-.54,1.03-.21,1.89-.42,2.61-.65,.71-.23,1.29-.48,1.73-.74s.78-.54,1.03-.83c.25-.29,.41-.58,.49-.88,.08-.3,.12-.61,.12-.94,0-.23-.05-.49-.16-.76-.11-.27-.28-.52-.53-.74-.25-.22-.57-.41-.96-.56-.4-.15-.88-.23-1.46-.23Z"/><path class="cls-4" d="M259.34,71.7c-.53,.42-1.05,.76-1.56,1-.51,.25-1.02,.41-1.55,.5-.52,.09-1.08,.13-1.67,.13-.96,0-1.79-.17-2.5-.49-.71-.33-1.3-.79-1.76-1.38-.47-.59-.82-1.29-1.05-2.11-.23-.81-.35-1.7-.35-2.66,0-.88,.09-1.75,.28-2.62,.18-.86,.45-1.69,.79-2.47,.34-.78,.76-1.5,1.25-2.16,.49-.66,1.04-1.23,1.66-1.71,.61-.48,1.28-.86,2-1.13,.72-.27,1.49-.41,2.3-.41,.55,0,1.04,.05,1.48,.16s.84,.26,1.21,.46c.37,.2,.7,.44,1,.72,.3,.28,.58,.59,.84,.94l-.47,.55c-.1,.12-.22,.18-.35,.18-.11,0-.25-.09-.41-.27-.16-.18-.38-.37-.65-.58-.27-.21-.63-.4-1.06-.58-.43-.18-.98-.27-1.64-.27-.94,0-1.81,.25-2.62,.75-.81,.5-1.51,1.17-2.11,2.02-.6,.85-1.06,1.82-1.4,2.93-.34,1.11-.51,2.26-.51,3.47,0,.77,.09,1.48,.26,2.14,.17,.66,.44,1.22,.8,1.7s.82,.85,1.36,1.12,1.19,.4,1.94,.4c.59,0,1.12-.06,1.59-.19,.47-.13,.88-.29,1.25-.48,.36-.19,.68-.4,.95-.63,.27-.23,.52-.44,.73-.63,.21-.19,.39-.35,.54-.48,.15-.13,.29-.19,.41-.19s.24,.06,.35,.17l.35,.43c-.59,.66-1.15,1.2-1.68,1.62Z"/><path class="cls-4" d="M262.46,73.13l2.94-24.33h1.57l-1.54,12.71c.45-.84,.94-1.58,1.48-2.23,.54-.65,1.11-1.2,1.71-1.66s1.21-.79,1.83-1.03,1.25-.35,1.89-.35c1.25,0,2.18,.4,2.8,1.2,.62,.8,.93,1.96,.93,3.46,0,.09,0,.19,0,.31,0,.12-.02,.32-.05,.59-.03,.28-.07,.68-.12,1.2-.06,.52-.13,1.22-.23,2.09s-.23,1.97-.38,3.28c-.15,1.31-.34,2.9-.56,4.76h-1.57l1.25-10.63c.07-.51,.1-1,.1-1.46,0-1.14-.21-2-.64-2.59-.43-.59-1.11-.89-2.03-.89-.6,0-1.21,.15-1.84,.46-.62,.31-1.23,.75-1.81,1.32-.58,.58-1.14,1.27-1.66,2.08-.52,.81-.99,1.72-1.39,2.73l-1.09,8.98h-1.57Z"/><path class="cls-4" d="M277,73.91c-.1,.21-.24,.37-.43,.47s-.37,.15-.54,.15h-.64l12.56-24.96c.19-.4,.5-.6,.94-.6h.65l-12.54,24.95Z"/><path class="cls-4" d="M287.25,56.49h1.22c.16,0,.28,.04,.36,.13,.08,.08,.14,.17,.16,.28l3.39,13.13c.04,.26,.08,.51,.11,.75,.03,.25,.05,.5,.08,.75,.14-.47,.33-.97,.57-1.5l6.64-13.13c.06-.12,.14-.22,.24-.29,.11-.07,.22-.11,.34-.11h1.19l-8.53,16.64h-1.3l-4.46-16.64Z"/><path class="cls-4" d="M312.13,73.13h-.77c-.21,0-.36-.05-.44-.15-.08-.1-.12-.22-.12-.37l.55-5.23c-.42,.89-.89,1.7-1.4,2.43-.51,.73-1.05,1.36-1.62,1.88-.57,.52-1.18,.93-1.81,1.22-.64,.29-1.29,.44-1.97,.44s-1.32-.14-1.84-.41c-.52-.27-.96-.66-1.31-1.16-.35-.5-.62-1.11-.79-1.82-.18-.71-.27-1.52-.27-2.41,0-.97,.12-1.92,.37-2.85s.59-1.81,1.04-2.65c.45-.84,.99-1.61,1.61-2.31,.62-.7,1.31-1.31,2.06-1.82,.75-.51,1.56-.91,2.42-1.2s1.75-.44,2.66-.44c.67,0,1.29,.06,1.87,.18,.58,.12,1.15,.32,1.72,.61l-1.96,16.07Zm-7.07-1.1c.64,0,1.26-.18,1.88-.54,.62-.36,1.21-.86,1.76-1.51,.56-.65,1.08-1.44,1.58-2.36s.94-1.94,1.33-3.05l.84-6.77c-.66-.22-1.37-.33-2.14-.33s-1.47,.13-2.17,.38c-.7,.25-1.36,.6-1.98,1.05-.62,.45-1.19,.98-1.71,1.59-.52,.61-.97,1.29-1.35,2.02-.38,.73-.67,1.5-.88,2.32-.21,.81-.31,1.64-.31,2.49,0,1.49,.25,2.66,.76,3.49,.51,.83,1.3,1.25,2.38,1.25Z"/><path class="cls-4" d="M316.33,73.13l2.94-24.33h1.55l-2.96,24.33h-1.54Z"/><path class="cls-4" d="M334.54,59.66c0,.46-.06,.89-.18,1.3-.12,.41-.34,.8-.65,1.17-.31,.37-.74,.72-1.27,1.04-.54,.33-1.22,.63-2.06,.9-.84,.27-1.83,.52-2.99,.74-1.16,.22-2.52,.41-4.08,.58-.02,.23-.04,.47-.05,.69-.01,.23-.02,.45-.02,.68,0,1.66,.38,2.96,1.13,3.9,.75,.94,1.89,1.4,3.4,1.4,.59,0,1.12-.06,1.6-.19,.47-.13,.9-.29,1.27-.49,.37-.2,.7-.41,.99-.63,.28-.22,.54-.44,.76-.64,.22-.2,.42-.37,.58-.49,.16-.13,.31-.19,.44-.19s.25,.06,.35,.17l.37,.43c-.55,.58-1.08,1.08-1.6,1.5-.52,.42-1.04,.76-1.57,1.03s-1.08,.47-1.65,.59-1.18,.19-1.82,.19c-.93,0-1.75-.15-2.47-.46-.72-.31-1.32-.74-1.81-1.3-.49-.56-.86-1.25-1.12-2.06-.26-.81-.38-1.71-.38-2.72,0-.84,.08-1.68,.25-2.53,.17-.85,.42-1.66,.74-2.44,.33-.78,.74-1.51,1.22-2.19,.49-.68,1.04-1.27,1.66-1.77,.62-.5,1.32-.9,2.07-1.19s1.58-.44,2.46-.44c.81,0,1.5,.12,2.07,.34,.56,.23,1.02,.51,1.37,.85,.35,.34,.6,.71,.76,1.1s.23,.77,.23,1.11Zm-4.51-2.24c-.89,0-1.7,.19-2.42,.57-.72,.38-1.35,.88-1.91,1.51s-1.01,1.36-1.39,2.19c-.37,.83-.65,1.7-.83,2.6,1.42-.16,2.64-.34,3.66-.54,1.03-.21,1.89-.42,2.61-.65,.71-.23,1.29-.48,1.73-.74s.78-.54,1.03-.83c.25-.29,.41-.58,.49-.88,.08-.3,.12-.61,.12-.94,0-.23-.05-.49-.16-.76-.11-.27-.28-.52-.53-.74-.25-.22-.57-.41-.96-.56-.4-.15-.88-.23-1.46-.23Z"/><path class="cls-4" d="M337.08,70.33c0-.07,0-.15,0-.25,0-.1,.02-.25,.03-.45,.02-.2,.04-.46,.08-.78,.04-.32,.09-.72,.14-1.21l1.14-9.45h-2.19c-.22,0-.33-.11-.33-.32l.08-.69,2.62-.2,1.1-5.95c.02-.1,.07-.19,.15-.27s.17-.12,.28-.12h.77l-.79,6.35h4.82l-.13,1.19h-4.82l-1.15,9.39c-.06,.46-.1,.83-.13,1.12-.03,.29-.06,.53-.08,.71s-.04,.32-.04,.41c0,.09,0,.16,0,.2,0,.72,.17,1.25,.51,1.57,.34,.32,.78,.48,1.31,.48,.37,0,.69-.06,.98-.18,.28-.12,.53-.24,.74-.38s.38-.27,.52-.38,.23-.18,.3-.18,.12,.01,.15,.04c.03,.03,.07,.07,.1,.12l.3,.7c-.45,.47-.99,.85-1.62,1.14s-1.27,.43-1.91,.43c-.91,0-1.63-.25-2.15-.75-.52-.5-.78-1.27-.79-2.31Z"/><path class="cls-4" d="M345.66,62.54h7.16l-.15,1.32h-7.19l.18-1.32Z"/><path class="cls-4" d="M354.15,56.49h1.12c.28,0,.45,.13,.5,.4l2.24,13.13c.04,.25,.07,.48,.08,.71s0,.45,0,.68c.09-.22,.18-.45,.27-.68,.09-.23,.18-.47,.28-.71l5.72-13.24c.09-.25,.26-.37,.5-.37h.6c.25,0,.38,.12,.42,.37l2.46,13.24c.06,.26,.09,.5,.11,.74,.02,.23,.04,.47,.06,.7,.07-.23,.14-.47,.22-.7,.08-.23,.17-.48,.28-.74l5.45-13.13c.06-.12,.13-.22,.23-.29,.09-.07,.2-.11,.33-.11h1.1l-7.12,16.64h-1.14c-.17,0-.27-.12-.32-.35l-2.56-13.51c-.06-.28-.08-.53-.08-.77-.08,.25-.18,.5-.3,.77l-5.89,13.51c-.09,.23-.22,.35-.4,.35h-1.1l-3.06-16.64Z"/><path class="cls-4" d="M379.75,56.49l-2.02,16.64h-1.55l2.02-16.64h1.55Zm1.22-5.74c0,.2-.04,.39-.12,.56s-.18,.33-.32,.46-.29,.24-.46,.32-.35,.12-.53,.12c-.19,0-.37-.04-.53-.12-.17-.08-.32-.18-.44-.32-.13-.13-.23-.29-.31-.46s-.12-.36-.12-.56,.04-.39,.12-.57,.18-.34,.31-.48c.13-.14,.28-.25,.44-.33,.17-.08,.34-.12,.53-.12,.18,0,.35,.04,.53,.12s.33,.18,.46,.32,.24,.29,.32,.48c.08,.18,.12,.38,.12,.58Z"/><path class="cls-4" d="M382.01,73.13l2.01-16.69h.72c.38,0,.57,.2,.57,.6l-.49,4.82c.46-.88,.96-1.67,1.51-2.37,.55-.7,1.13-1.29,1.75-1.77,.61-.49,1.24-.85,1.89-1.1,.65-.25,1.3-.38,1.96-.38,1.24,0,2.17,.41,2.79,1.22,.62,.81,.94,1.98,.94,3.5,0,.1,0,.21,0,.34s-.02,.33-.05,.61c-.03,.28-.07,.67-.13,1.18s-.13,1.19-.23,2.06c-.1,.86-.23,1.95-.38,3.24s-.34,2.88-.56,4.74h-1.57l1.25-10.65c.07-.51,.1-1,.1-1.46,0-1.13-.21-1.99-.64-2.58-.43-.59-1.11-.89-2.03-.89-.62,0-1.25,.16-1.89,.48-.64,.32-1.25,.77-1.85,1.36-.6,.59-1.16,1.29-1.68,2.13-.52,.83-.99,1.77-1.39,2.8l-1.02,8.8h-1.57Z"/><path class="cls-4" d="M408.78,73.13c-.21,0-.36-.05-.44-.15-.08-.1-.12-.22-.12-.37l.55-5.3c-.43,.9-.92,1.73-1.46,2.47-.54,.74-1.11,1.38-1.71,1.91-.6,.53-1.23,.94-1.89,1.23-.66,.29-1.33,.44-2.01,.44-.72,0-1.36-.14-1.91-.42-.55-.28-1-.67-1.37-1.19s-.65-1.13-.84-1.86-.28-1.54-.28-2.44c0-.85,.09-1.71,.27-2.6,.18-.89,.43-1.75,.76-2.58,.33-.83,.73-1.61,1.2-2.34,.47-.73,1.01-1.37,1.61-1.92,.6-.55,1.26-.98,1.97-1.3,.71-.32,1.48-.48,2.29-.48,.9,0,1.73,.2,2.49,.59,.76,.4,1.38,.99,1.87,1.78l1.22-9.82h1.54l-2.98,24.33h-.77Zm-6.57-1.07c.64,0,1.27-.18,1.91-.53,.63-.35,1.25-.85,1.85-1.5,.6-.65,1.15-1.42,1.67-2.33s.98-1.92,1.38-3.02l.58-4.82c-.48-.87-1.08-1.48-1.79-1.84-.71-.36-1.46-.54-2.22-.54-.7,0-1.36,.14-1.96,.43-.61,.28-1.16,.67-1.66,1.16-.5,.49-.94,1.06-1.32,1.71s-.71,1.33-.97,2.06c-.26,.72-.46,1.47-.6,2.24-.14,.77-.21,1.51-.21,2.22,0,1.49,.28,2.66,.85,3.5,.57,.84,1.4,1.25,2.49,1.25Z"/><path class="cls-4" d="M419.08,73.34c-.89,0-1.7-.16-2.43-.47-.73-.31-1.35-.76-1.87-1.35s-.92-1.31-1.2-2.15-.43-1.8-.43-2.87c0-1.35,.2-2.64,.6-3.89,.4-1.24,.97-2.34,1.7-3.29s1.6-1.7,2.6-2.27c1-.56,2.11-.84,3.31-.84,.89,0,1.7,.16,2.43,.48s1.35,.77,1.87,1.35,.92,1.3,1.2,2.15c.28,.85,.43,1.79,.43,2.84,0,1.35-.2,2.64-.61,3.88-.41,1.24-.97,2.33-1.7,3.29s-1.59,1.71-2.59,2.28c-1,.57-2.11,.85-3.31,.85Zm.13-1.25c.97,0,1.85-.25,2.65-.76,.8-.51,1.48-1.18,2.05-2.02,.57-.84,1.01-1.81,1.31-2.89s.46-2.2,.46-3.35c0-1.78-.4-3.16-1.19-4.13-.79-.97-1.89-1.46-3.29-1.46-.65,0-1.25,.12-1.82,.34-.57,.23-1.09,.55-1.57,.96s-.91,.9-1.3,1.46c-.38,.56-.71,1.18-.97,1.85-.26,.67-.46,1.38-.6,2.12-.14,.75-.21,1.51-.21,2.29,0,1.77,.39,3.15,1.18,4.12,.79,.98,1.89,1.46,3.3,1.46Z"/><path class="cls-4" d="M428.58,56.49h1.12c.28,0,.45,.13,.5,.4l2.24,13.13c.04,.25,.07,.48,.08,.71s0,.45,0,.68c.09-.22,.18-.45,.27-.68,.09-.23,.18-.47,.28-.71l5.72-13.24c.09-.25,.26-.37,.5-.37h.6c.25,0,.38,.12,.42,.37l2.46,13.24c.06,.26,.09,.5,.11,.74,.02,.23,.04,.47,.06,.7,.07-.23,.14-.47,.22-.7,.08-.23,.17-.48,.28-.74l5.45-13.13c.06-.12,.13-.22,.23-.29,.09-.07,.2-.11,.33-.11h1.1l-7.12,16.64h-1.14c-.17,0-.27-.12-.32-.35l-2.56-13.51c-.06-.28-.08-.53-.08-.77-.08,.25-.18,.5-.3,.77l-5.89,13.51c-.09,.23-.22,.35-.4,.35h-1.1l-3.06-16.64Z"/><path class="cls-4" d="M460.48,58.53c-.09,.16-.21,.23-.37,.23-.11,0-.25-.07-.41-.21-.16-.14-.38-.3-.66-.47-.28-.17-.62-.33-1.04-.47s-.93-.21-1.54-.21c-.57,0-1.11,.09-1.61,.28-.51,.19-.95,.44-1.32,.76-.37,.32-.67,.69-.89,1.1-.22,.42-.33,.86-.33,1.33s.11,.84,.32,1.15c.21,.31,.49,.58,.84,.81,.35,.23,.75,.43,1.19,.59s.89,.33,1.36,.5c.47,.17,.92,.35,1.36,.56,.44,.21,.84,.46,1.19,.74,.35,.29,.63,.64,.84,1.06s.32,.92,.32,1.51c0,.71-.14,1.4-.43,2.07s-.69,1.26-1.21,1.78c-.52,.52-1.16,.93-1.9,1.25-.74,.31-1.57,.47-2.48,.47-1.08,0-1.98-.19-2.71-.56-.72-.37-1.35-.86-1.87-1.46l.38-.57c.07-.09,.13-.16,.2-.2,.07-.04,.15-.07,.25-.07,.11,0,.25,.09,.42,.27,.17,.18,.4,.38,.69,.59,.29,.22,.67,.42,1.13,.59,.46,.18,1.03,.27,1.72,.27s1.26-.11,1.8-.33c.54-.22,1-.52,1.39-.89s.68-.82,.89-1.31,.32-1.02,.32-1.58c0-.49-.11-.9-.32-1.24-.21-.33-.49-.62-.84-.86-.35-.24-.74-.44-1.19-.61-.45-.17-.9-.33-1.36-.49-.46-.16-.92-.34-1.36-.54-.45-.2-.84-.43-1.19-.71-.35-.28-.62-.62-.84-1.02-.21-.4-.32-.89-.32-1.47,0-.65,.14-1.27,.42-1.87,.28-.6,.67-1.12,1.17-1.59,.5-.46,1.1-.83,1.79-1.1s1.45-.41,2.27-.41c.94,0,1.75,.15,2.44,.43,.69,.29,1.3,.73,1.84,1.3l-.38,.55Z"/></g></g></svg>